PathFileType	4	(X/Y/Z)	./resultDataOpenSim/trcMotMarkerGrf/sub10/qtm-13-06.trc
DataRate	CameraRate	NumFrames	NumMarkers	Units	OrigDataRate	OrigDataStartFrame	OrigNumFrames
250.000000	250.000000	14	24	m	250.000000	65	513
Frame#	Time	L.Toe.Tip			R.Toe.Tip			L.Ankle.Lat			R.Ankle.Lat			L.Ankle.Med			R.Ankle.Med			L.Heel			R.Heel			L.Knee.Lat			R.Knee.Lat			L.Knee.Med			R.Knee.Med			L.Thigh.Upper			R.Thigh.Upper			L.ASIS			R.ASIS			V.Sacral			L.Acromium			R.Acromium			C7			L.Elbow			R.Elbow			L.Wrist.Lat			R.Wrist.Lat
		X1	Y1	Z1	X2	Y2	Z2	X3	Y3	Z3	X4	Y4	Z4	X5	Y5	Z5	X6	Y6	Z6	X7	Y7	Z7	X8	Y8	Z8	X9	Y9	Z9	X10	Y10	Z10	X11	Y11	Z11	X12	Y12	Z12	X13	Y13	Z13	X14	Y14	Z14	X15	Y15	Z15	X16	Y16	Z16	X17	Y17	Z17	X18	Y18	Z18	X19	Y19	Z19	X20	Y20	Z20	X21	Y21	Z21	X22	Y22	Z22	X23	Y23	Z23	X24	Y24	Z24

65	0.256	-1.3783873	0.083426171	-0.13208502	-0.70616867	0.039227442	0.0018352929	-1.3603026	0.22183081	-0.15936475	-0.84549624	0.052976397	0.040946846	-1.3238437	0.20486601	-0.084033309	-0.83143781	0.080362912	-0.043239991	-1.3866718	0.27046852	-0.10031294	-0.89893324	0.028532404	-0.0044663178	-1.0403224	0.4117301	-0.20595286	-0.82698398	0.45365719	0.080575425	-1.0117439	0.36831243	-0.094914504	-0.83150871	0.46096903	-0.046444908	-0.98213126	0.78557258	-0.22054064	-0.93560032	0.85301473	0.15809768	-0.91527465	0.89863929	-0.16594546	-0.88070224	0.93759818	0.07061965	-1.0992527	0.93334461	-0.027433757	-0.96984925	1.3950337	-0.19221523	-0.99561513	1.3776529	0.13210189	-1.0708073	1.413261	-0.037015585	-1.0313264	1.0548699	-0.27103416	-1.097961	1.0495642	0.16215934	-0.83502956	0.90234773	-0.24178215	-1.0256062	0.83074101	0.24240366
66	0.26	-1.3649862	0.085263448	-0.13241041	-0.70615202	0.039203011	0.0017205314	-1.3484082	0.22373376	-0.15954007	-0.84558748	0.05300578	0.040869339	-1.3124962	0.20701233	-0.083964669	-0.83134671	0.080334512	-0.043367969	-1.3758239	0.27209994	-0.10021561	-0.89899116	0.028516865	-0.0044880022	-1.028167	0.41221292	-0.20613766	-0.82468979	0.45368698	0.080538869	-0.99777048	0.36978769	-0.095420774	-0.82910078	0.46099454	-0.046757239	-0.97582988	0.7865429	-0.2203424	-0.93071377	0.853366	0.15814953	-0.90980297	0.90014364	-0.16603416	-0.87530877	0.93826477	0.071163706	-1.0940134	0.93383244	-0.027476816	-0.9645496	1.3959813	-0.19200769	-0.98957591	1.3785867	0.13233877	-1.065352	1.4143432	-0.036548586	-1.026923	1.0560196	-0.27104249	-1.0917307	1.0496625	0.16187657	-0.83136095	0.90272071	-0.24209587	-1.0174121	0.83132937	0.24210709
67	0.264	-1.3510509	0.086900204	-0.13266677	-0.70616487	0.039187972	0.0016379166	-1.3363084	0.2254293	-0.15974411	-0.84568033	0.053035153	0.040784513	-1.300019	0.20929839	-0.084312982	-0.83128785	0.080304036	-0.043474548	-1.3651636	0.27370341	-0.10058474	-0.89904886	0.028502915	-0.0045122063	-1.0158183	0.41286526	-0.20634527	-0.82279181	0.45364142	0.080640497	-0.98410336	0.37130952	-0.095758808	-0.82677484	0.46101529	-0.047042965	-0.96972952	0.78757006	-0.22017718	-0.92575339	0.8537452	0.15818972	-0.90443158	0.90162576	-0.16620297	-0.86993609	0.9389442	0.071751013	-1.0888102	0.93439249	-0.027644585	-0.95929757	1.3969449	-0.19181721	-0.98359797	1.3796004	0.13258031	-1.0599494	1.4154018	-0.036118998	-1.0225529	1.0571679	-0.27107951	-1.0855162	1.0497946	0.16163494	-0.82781854	0.90307837	-0.2424371	-1.009293	0.83196703	0.24175959
68	0.268	-1.3366771	0.088353113	-0.13289731	-0.70620611	0.039180781	0.0015889322	-1.3240707	0.22691203	-0.15998724	-0.84576145	0.053061461	0.040696813	-1.2868022	0.21160996	-0.084896836	-0.83125003	0.080272499	-0.043562581	-1.3545645	0.27527526	-0.10148168	-0.89910039	0.028490316	-0.0045402206	-1.0033877	0.4136245	-0.20657754	-0.82129972	0.45353754	0.080885896	-0.97164043	0.37272594	-0.095678903	-0.82454235	0.46104064	-0.047217784	-0.96378672	0.78867913	-0.22001292	-0.92070138	0.85416018	0.1582358	-0.89915196	0.90307121	-0.16642521	-0.86469897	0.93962735	0.072335991	-1.0836832	0.93504384	-0.02801298	-0.95409973	1.3979186	-0.19165746	-0.97769714	1.3806646	0.13284508	-1.0545965	1.4164437	-0.035717851	-1.0182321	1.0583274	-0.2711667	-1.0790423	1.0501668	0.16182486	-0.82438366	0.90341097	-0.24280169	-1.0012665	0.83264743	0.24135756
69	0.272	-1.3219714	0.089623122	-0.13312117	-0.70627245	0.039182181	0.0015719475	-1.3116986	0.22818471	-0.16026437	-0.84583298	0.053081713	0.040606949	-1.2736326	0.21375856	-0.085385289	-0.83122923	0.080242072	-0.043635212	-1.3439136	0.27664564	-0.1026037	-0.89914268	0.028478597	-0.0045724772	-0.99100326	0.41445622	-0.20677642	-0.81997963	0.45341507	0.081171879	-0.96027187	0.37403966	-0.095259978	-0.82238114	0.46106859	-0.047274007	-0.95797232	0.78988071	-0.21983904	-0.91563769	0.85460985	0.15827765	-0.89393641	0.90448068	-0.16667496	-0.8597551	0.94030899	0.072852668	-1.078655	0.93579343	-0.028584737	-0.94896577	1.3989086	-0.19152276	-0.97187719	1.3817451	0.13313044	-1.0492916	1.4174732	-0.035340301	-1.0139576	1.0595049	-0.27130509	-1.0723114	1.0508402	0.16250913	-0.82095207	0.90371425	-0.24316653	-0.99321606	0.83337163	0.24093
70	0.276	-1.3070453	0.090696816	-0.13332771	-0.70636037	0.039194491	0.0015865759	-1.2991863	0.22926253	-0.16054466	-0.84590536	0.053094381	0.040515245	-1.2608335	0.2156519	-0.085653725	-0.83122884	0.080216961	-0.04369418	-1.3330965	0.27762985	-0.10366446	-0.89917699	0.028468325	-0.004609249	-0.9787203	0.41536571	-0.20688365	-0.81850938	0.45331881	0.081361937	-0.9491992	0.37537454	-0.094761166	-0.82036791	0.46107823	-0.047258901	-0.95227971	0.79117105	-0.21966498	-0.91076527	0.85509051	0.15824114	-0.88876132	0.90585874	-0.1669401	-0.85516719	0.94098874	0.073265169	-1.0736751	0.93663124	-0.029220577	-0.94389987	1.3999218	-0.19139416	-0.96611789	1.3828302	0.13341172	-1.0440351	1.4184876	-0.034991433	-1.0097013	1.0606996	-0.27147392	-1.0655087	1.0517237	0.16348451	-0.81741527	0.90399694	-0.24350191	-0.98498521	0.8341417	0.24051721
71	0.28	-1.2919926	0.091541872	-0.13349101	-0.70646641	0.039219315	0.0016319196	-1.2865553	0.23016209	-0.16078766	-0.84598174	0.053100624	0.040427012	-1.248234	0.21731099	-0.085786622	-0.83125376	0.0802018	-0.043739997	-1.3220334	0.27820863	-0.10470593	-0.89920583	0.028460917	-0.0046509834	-0.96649294	0.41637121	-0.20690747	-0.81677177	0.45326674	0.081412377	-0.93786448	0.37682182	-0.09434669	-0.81865387	0.46104639	-0.047225668	-0.94671583	0.79253199	-0.21951925	-0.90625537	0.85560532	0.15804971	-0.88363208	0.90720232	-0.16722246	-0.85077594	0.94166958	0.073615444	-1.0686601	0.93753639	-0.029740646	-0.93889809	1.400956	-0.19125831	-0.96040697	1.3839257	0.13367614	-1.0388219	1.4194842	-0.034675263	-1.0054164	1.0619021	-0.27163378	-1.0587563	1.0526773	0.16454229	-0.81377703	0.90428365	-0.24380225	-0.97653066	0.83495453	0.240131
72	0.284	-1.2768657	0.092129098	-0.13359494	-0.70658812	0.039255215	0.0017020696	-1.2738251	0.23089546	-0.16097822	-0.84605282	0.053102945	0.040349868	-1.2356147	0.21878707	-0.085879331	-0.8313051	0.080198115	-0.04377229	-1.3107334	0.27846288	-0.1057618	-0.89923186	0.028457655	-0.0046967368	-0.95424858	0.41747488	-0.20690502	-0.81488042	0.45324138	0.081375454	-0.92622245	0.37838621	-0.094030767	-0.81727567	0.46096716	-0.047192406	-0.94128454	0.79393404	-0.21943921	-0.90200339	0.85617213	0.15774881	-0.87856581	0.90850585	-0.16752744	-0.846331	0.94235989	0.073984663	-1.0635778	0.93848931	-0.030084294	-0.93395517	1.4020047	-0.19111652	-0.95475018	1.3850379	0.13393107	-1.0336375	1.4204676	-0.034384055	-1.0010544	1.0631005	-0.27174511	-1.0520411	1.0535671	0.16553595	-0.81011939	0.90459686	-0.24408968	-0.96792332	0.83580909	0.23975551
73	0.288	-1.2616457	0.092480324	-0.13367088	-0.70672502	0.039298519	0.0017866089	-1.2609887	0.23147017	-0.16114144	-0.84610838	0.053102686	0.040286818	-1.2228427	0.22010989	-0.085975055	-0.83138298	0.080202771	-0.043790047	-1.2992568	0.27842675	-0.10662908	-0.89925955	0.02845871	-0.0047422146	-0.94197574	0.41866798	-0.20690961	-0.81294005	0.45321313	0.081315771	-0.91444466	0.38004036	-0.093765286	-0.8160692	0.46085473	-0.04713535	-0.93598176	0.79534338	-0.21945131	-0.89770597	0.85680541	0.15748345	-0.87355639	0.90977093	-0.16785586	-0.84173641	0.94307027	0.074407805	-1.0584498	0.9394748	-0.030309707	-0.92906801	1.4030626	-0.19097738	-0.94915021	1.3861662	0.13418677	-1.0284665	1.4214479	-0.034103886	-0.99660367	1.0642887	-0.27180016	-1.0452847	1.054263	0.16627863	-0.8065116	0.90493015	-0.2443951	-0.95924503	0.83670698	0.23937711
74	0.292	-1.2462393	0.092668753	-0.13380335	-0.70687763	0.039347099	0.0018768441	-1.2480251	0.23187761	-0.16131025	-0.84614965	0.053101185	0.040236153	-1.2098439	0.22126397	-0.086086633	-0.83149182	0.08021233	-0.043791265	-1.2876436	0.27809383	-0.10722827	-0.89929372	0.02846264	-0.0047810625	-0.92971461	0.41995129	-0.20691174	-0.81086604	0.45317174	0.081268761	-0.90268585	0.38176004	-0.093505644	-0.81480372	0.46073361	-0.047030193	-0.93080319	0.79673227	-0.21955707	-0.89321504	0.85748862	0.15734513	-0.86857213	0.9110075	-0.16819623	-0.83706821	0.94380866	0.074864393	-1.0533069	0.94047928	-0.030492299	-0.92423288	1.4041262	-0.19084811	-0.94360351	1.3873035	0.13444748	-1.0233028	1.4224331	-0.033826459	-0.99213131	1.0654665	-0.2718343	-1.0384272	1.0546451	0.16649867	-0.80303989	0.9052483	-0.24475479	-0.95053289	0.83764122	0.23899252
75	0.296	-1.2305636	0.092746327	-0.13405743	-0.70704583	0.039401177	0.0019715357	-1.2349194	0.23207582	-0.16149092	-0.84618902	0.053102488	0.040198114	-1.1966545	0.22218517	-0.086203502	-0.83163977	0.080228268	-0.043773565	-1.2759216	0.27748174	-0.10783392	-0.89933607	0.028466917	-0.0048093232	-0.91749303	0.42133489	-0.20689904	-0.80848114	0.45314658	0.081258844	-0.89101449	0.38352412	-0.093232104	-0.81334454	0.46062337	-0.046887735	-0.9257481	0.79808954	-0.21974174	-0.8886367	0.85818179	0.15732057	-0.86358532	0.91222623	-0.16852412	-0.83242581	0.94457619	0.075328633	-1.0481737	0.9414909	-0.030675593	-0.91944579	1.4051941	-0.1907321	-0.93811205	1.3884429	0.13471101	-1.0181491	1.4234279	-0.033549846	-0.98773802	1.0666367	-0.27188486	-1.0315022	1.0547137	0.16606065	-0.79979503	0.90551898	-0.24519563	-0.94178851	0.83859846	0.23859324
76	0.3	-1.2146309	0.092695063	-0.13442303	-0.70722711	0.039459966	0.002075851	-1.221661	0.23199924	-0.16167589	-0.84623917	0.053109497	0.040175259	-1.1834115	0.22279792	-0.086310182	-0.83183327	0.080255224	-0.043737076	-1.2641085	0.27662482	-0.10876114	-0.89938511	0.028469722	-0.0048283514	-0.90530741	0.42282419	-0.20687128	-0.80585584	0.45320026	0.081318881	-0.87938284	0.38533291	-0.092941944	-0.81169477	0.46052329	-0.046741541	-0.92080533	0.7994264	-0.2199874	-0.88413325	0.85885458	0.15735793	-0.85859153	0.91343427	-0.16881956	-0.82785493	0.94536137	0.075789659	-1.043065	0.94250375	-0.03087182	-0.9147008	1.4062644	-0.19063075	-0.93268603	1.3895824	0.13497579	-1.0130052	1.4244349	-0.033269989	-0.98345881	1.0678042	-0.27195608	-1.0246687	1.0547174	0.16527991	-0.79675388	0.90573913	-0.2457036	-0.9329993	0.83957054	0.23816158
77	0.304	-1.1985032	0.092474361	-0.13486534	-0.70741502	0.039520478	0.0021937164	-1.2082403	0.23160295	-0.16186965	-0.84630022	0.0531181	0.040164571	-1.1702187	0.22306801	-0.086398675	-0.83206981	0.080295923	-0.043686544	-1.2521424	0.27552976	-0.10993943	-0.8994379	0.028471804	-0.0048442402	-0.89315166	0.42441047	-0.20681993	-0.8034898	0.45335395	0.081451064	-0.86767436	0.38721782	-0.09262393	-0.80999117	0.46041224	-0.046615648	-0.91592388	0.80077195	-0.22025925	-0.87977595	0.85950145	0.15742215	-0.85359452	0.9146427	-0.16907863	-0.82335124	0.94614531	0.076239799	-1.0379794	0.94352047	-0.031069015	-0.90998914	1.4073325	-0.19054583	-0.92732534	1.390721	0.13523867	-1.0078667	1.4254526	-0.032985337	-0.97925424	1.0689743	-0.27204022	-1.0180681	1.054984	0.16475174	-0.79379042	0.90592422	-0.24623417	-0.92415324	0.8405557	0.23768493
78	0.308	-1.1822229	0.092083613	-0.13537811	-0.70759973	0.039579651	0.0023208495	-1.1946675	0.23089052	-0.16207482	-0.84635107	0.053118561	0.040152389	-1.1570447	0.22302211	-0.086455013	-0.83233078	0.080349404	-0.043631016	-1.2399075	0.27417457	-0.11097971	-0.89948831	0.028477375	-0.00486926	-0.88105056	0.42607288	-0.20672909	-0.80186309	0.45351137	0.081589162	-0.85581088	0.38920663	-0.092259908	-0.80842363	0.46026629	-0.046502484	-0.91100455	0.80215223	-0.22048385	-0.87552375	0.86012803	0.15751053	-0.84858364	0.9158674	-0.16930325	-0.81888384	0.94691198	0.076666443	-1.0329064	0.94454612	-0.031245702	-0.90530739	1.4083929	-0.19047793	-0.92200174	1.3918533	0.13548329	-1.0027322	1.4264721	-0.032707346	-0.97507816	1.0701437	-0.2721341	-1.0115973	1.0555833	0.16484838	-0.79080809	0.90608298	-0.24675621	-0.91525822	0.84155525	0.23716222
